#!OML:ASF F:\VICON\USERDATA\INSTALL\rory3\rory3.ASF
:FULLY-SPECIFIED
:DEGREES
19
root 0.5220959474253668 17.754609612416893 -1.1503414738786581 -2.0855425955690228 2.199775032841566 3.191526758977348
lfemur 14.904884679616295 -3.6864840278008426 -28.02068813827669
ltibia 15.026509525280115
lfoot -16.94618803636382 -2.6538101183314096
ltoes -7.562112840969121
rfemur -28.51588826239097 7.058059177911763 14.967916089003173
rtibia 16.714311657891503
rfoot -12.622995781675577 -14.588984934751098
rtoes 0.3211112870990078
lowerback 10.695794178955184 -1.7360362143109918 -4.566875999644633
upperback 0.2952017568293063 -2.7941453497065694 1.285231145858974
thorax -5.4089994758080016 -1.2436256253275415 4.344313930538875
lowerneck -16.72359208154663 -2.7810154131769944 -1.7629627963660588
upperneck 21.227400876261875 -3.2373690985237182 -0.7097675717726036
head 9.483789157800034 -1.734314963369488 -0.3729644101763168
lclavicle 6.563340947448545e-16 -1.0577715836147233e-16
lhumerus -20.582516026973778 -1.8950978537211185 80.1969972042548
lradius 32.23098452663473
lwrist 8.530700428139433
lhand -31.663985250386204 19.056002459482677
lfingers 7.12502
lthumb -4.924245250915879 48.97880252326875
rclavicle 6.563340947448545e-16 -1.0577715836147233e-16
rhumerus -35.01018938293222 -28.349086397771664 -72.0600144841108
rradius 21.911509892120563
rwrist 5.922745824977175
rhand -17.00590701473351 23.544895194284308
rfingers 7.12502
rthumb 9.229662983966563 -6.23307499119914
20
root 0.4026087652210162 17.701413462771576 -0.1221759986081068 -2.3457109434492187 1.8445362302907928 2.761537852459181
lfemur 17.512283031460928 -5.205539425707662 -27.84908838786994
ltibia 18.099807750447543
lfoot -15.155590107977051 -1.2535420955320289
ltoes -13.86178252439649
rfemur -28.391188348173518 4.776676321201925 17.98611155923935
rtibia 23.62610795823985
rfoot -9.529568835352736 -10.049093107725282
rtoes 0.007481183601532493
lowerback 10.181098807384792 -1.7142363585939113 -4.444956287645079
upperback 0.510407285003258 -2.7148256813118814 1.4643688710811198
thorax -4.898637228107916 -1.2266657811056096 4.421513602374932
lowerneck -16.378197848297532 -2.75171630631589 -2.031168821246879
upperneck 20.856505157971267 -3.1914799039626276 -0.4591499400752338
head 9.299915327601475 -1.7063062464621355 -0.2271797195984078
lclavicle 6.563340769376642e-16 -1.0577714788314981e-16
lhumerus -20.558416063647208 -1.2083790156599097 80.30489663844757
lradius 32.56168384854103
lwrist 7.8531023520466885
lhand -30.69258981491432 15.797408164812019
lfingers 7.12502
lthumb -3.9862898146020336 45.73990818553423
rclavicle 6.563340769376642e-16 -1.0577714788314981e-16
rhumerus -36.471887100445265 -32.17968138661302 -69.07232111311664
rradius 19.820014301550568
rwrist 10.732285820866895
rhand -19.33728910058491 22.19170136788839
rfingers 7.12502
rthumb 6.97959090019066 -7.673208375455639
21
root 0.16665825533771245 17.775652425828554 7.607990148335941 -2.3059108812206563 0.6422081234879604 0.7258911741950267
lfemur 13.366829896415837 -5.196650019478437 -26.056155980258836
ltibia 17.878456567174076
lfoot -13.05472872841058 2.9095566956949197
ltoes -13.035842825920776
rfemur -23.023772882856786 2.215732254178955 21.657660631597928
rtibia 21.481042727541134
rfoot -3.9549917999421664 -3.9103652548517145
rtoes 2.6829190599600397
lowerback 10.559291720880507 -1.0224527279693485 -1.995300978272983
upperback 0.19492974959695922 -1.5988967530979878 1.0156038115797155
thorax -5.623512564999604 -0.5825185376662669 3.1502018037966817
lowerneck -16.179080991854644 -2.6774336727504267 -2.1374634155330243
upperneck 21.321779981593426 -3.253847869475414 -0.09767086948934878
head 9.371090163218524 -1.666829705353122 -0.08492100975078565
lclavicle 6.56334069432318e-16 -1.0577713897437922e-16
lhumerus -21.288089505651797 -1.2497451630226948 79.04431492712195
lradius 32.36686873199045
lwrist 7.848747119132991
lhand -30.976306932992646 19.274221212765426
lfingers 7.12502
lthumb -4.052573842485194 49.884805827166055
rclavicle 6.563340694395448e-16 -1.0577713896736531e-16
rhumerus -36.79952346830049 -31.708965970249757 -70.58846837431105
rradius 20.065541197308463
rwrist 10.488514799535272
rhand -18.233119526491187 22.400477219403776
rfingers 7.12502
rthumb 7.975775162532638 -7.637189382856313
22
root 0.0036377452914056474 17.803611423577156 6.170641098054961 -2.168778829044825 -0.6529678788217528 -0.4223361862238888
lfemur 12.561602602470728 -4.544870224878122 -24.75081603890375
ltibia 19.78344780030355
lfoot -8.962067815389991 2.358109916341773
ltoes -9.405984723875374
rfemur -21.359426976233305 2.023144309186023 22.967469148587675
rtibia 19.631301109436926
rfoot -0.8125055278849684 -0.2397824057257294
rtoes 4.728811380828661
lowerback 10.672143303950666 -0.6851540000452607 -1.9162294498243706
upperback 0.1911261183083715 -1.227435514509383 0.9936177606194907
thorax -5.644576723002643 -0.4384211401974467 3.0833842711670325
lowerneck -16.09158267595452 -2.6222399071709654 -2.222254471922797
upperneck 21.786168932323907 -3.166653189647228 -0.08930386688700265
head 9.56425024737452 -1.6291083210104622 -0.02919222621732464
lclavicle 6.563340694245881e-16 -1.0577713898041985e-16
lhumerus -21.304980351336695 -0.26962434661176626 78.49654766434878
lradius 32.726619444331625
lwrist 7.487366952702525
lhand -30.744391715656075 20.34702597775997
lfingers 7.12502
lthumb -3.8862982359006315 50.907471910591
rclavicle 6.563340694286477e-16 -1.0577713897616706e-16
rhumerus -36.82123580245566 -31.281023068272543 -71.1664837828187
rradius 20.386120307849737
rwrist 8.886499340125994
rhand -18.032023691036095 21.68675730819058
rfingers 7.12502
rthumb 8.189312936157615 -7.781255239585658
23
root -0.1026754915089671 17.821272485136777 5.572779480251748 -1.7141046126521355 -1.4578177018878815 -1.4219898406312912
lfemur 12.075254654534014 -3.969754777407662 -23.34568010408813
ltibia 22.83578334800836
lfoot -3.057034686979921 -1.8497404063197105
ltoes -8.925878863988348
rfemur -19.366507406909744 2.6873181656394225 24.1644204421741
rtibia 16.769047091850428
rfoot 0.04082074855289264 -0.8086129004368692
rtoes 5.912916675231129
lowerback 10.462945431204638 -0.6221207905532744 -1.4777191216187475
upperback 0.17820342253564067 -1.1698618734629935 1.0791647867504304
thorax -5.608612240008104 -0.42126809480238714 3.0064356775586214
lowerneck -16.09811784509577 -2.593743146087254 -2.1102487649744237
upperneck 22.082468330212098 -3.1468618603733463 -0.15913918031490915
head 9.670247938918601 -1.6235827069779525 -0.06227405624304278
lclavicle 6.563340694205929e-16 -1.0577713898317212e-16
lhumerus -21.73585983537949 0.42394113289384006 78.25911866932618
lradius 32.94952871228074
lwrist 7.300981960589683
lhand -30.688247644868103 20.5318839095268
lfingers 7.12502
lthumb -3.792930656271346 51.079207257879084
rclavicle 6.563340694204668e-16 -1.0577713898266137e-16
rhumerus -37.027312746904904 -31.444324078235695 -71.15868539150685
rradius 21.018413123592993
rwrist 3.5542287594613438
rhand -17.538222644834487 21.918979513376005
rfingers 7.12502
rthumb 8.468430836922906 -7.611305106572791
24
root -0.1648007788549904 17.818061670772458 5.403530976957446 -1.6552130268121736 -2.1612486379384723 -1.2547981980804308
lfemur 12.006045669074869 -3.6727714106135947 -22.886389234521687
ltibia 25.895752197993012
lfoot 1.9556612509438764 -5.065049921791051
ltoes -6.9331391775380835
rfemur -17.811978379840426 3.0727241140184898 24.52810157386145
rtibia 14.132132965075602
rfoot 0.14281328501044754 -3.2841536399953726
rtoes 7.249079985930388
lowerback 10.339386429193167 -0.6185706582538033 -1.7556108767880176
upperback 0.1579453456204895 -1.2547183859627755 1.1363228783583972
thorax -5.508368531605672 -0.48573830426933173 3.058007546598197
lowerneck -16.201926444718957 -2.6052084728486187 -1.940607663788762
upperneck 22.325156804822708 -3.130008697453829 -0.2852399393624332
head 9.785831643019842 -1.6189028793751439 -0.12177305152393336
lclavicle 6.563340694277566e-16 -1.057771389766274e-16
lhumerus -22.276477404187943 0.6372793849300438 78.39035281670657
lradius 33.08316868023935
lwrist 7.253607758119476
lhand -30.435649115109477 20.48453788468895
lfingers 7.12502
lthumb -3.6406378552741265 50.77987821354743
rclavicle 6.563340694240568e-16 -1.0577713897931627e-16
rhumerus -37.155993693909274 -31.78252219136094 -70.66913285403268
rradius 21.90652756462622
rwrist 0.01967870858097065
rhand -17.411240359140116 22.144246290917753
rfingers 7.12502
rthumb 8.71611424992289 -7.272136194359565
25
root -0.18741287947981228 17.821808188389934 5.40789114260936 -1.417690263873378 -2.508735817948886 -0.773184295843079
lfemur 11.77769947128781 -3.5256190123217546 -22.78061564056489
ltibia 28.48778814024366
lfoot 4.843837277332565 -6.9293033659883445
ltoes -5.267820278343762
rfemur -16.74585031225144 2.9526263532363424 24.4964601336602
rtibia 12.348865708445327
rfoot 0.3896212008629547 -4.7161156531348425
rtoes 7.927921792327924
lowerback 10.27550190923051 -0.7470683557140347 -2.1767874635585933
upperback 0.10269085898087853 -1.3536908539733004 1.279979864737788
thorax -5.503148889697321 -0.5450324990253439 3.080558322473232
lowerneck -16.2415375219062 -2.615098622184064 -1.83854409872084
upperneck 22.32545578062746 -3.1401549195313514 -0.4237192841747429
head 9.798184962342475 -1.6228923060992917 -0.1787878404791506
lclavicle 6.563340694230148e-16 -1.0577713898032205e-16
lhumerus -22.979953586242992 0.6122453287502152 78.65443600858828
lradius 33.13674084246111
lwrist 7.308286884499859
lhand -30.493209413687218 20.355190733803525
lfingers 7.12502
lthumb -3.6715985139501015 50.58102560874784
rclavicle 6.563340694267416e-16 -1.057771389763429e-16
rhumerus -37.02745425628444 -32.38833147950276 -70.1533324356231
rradius 22.77734923354849
rwrist -1.0040740583499046
rhand -17.742610955348603 22.3527372195845
rfingers 7.12502
rthumb 8.295936376528017 -7.4223440297926615
